<svg version="1.0" xmlns="http://www.w3.org/2000/svg"
 width="762.000000pt" height="609.000000pt" viewBox="0 0 762.000000 609.000000"
 preserveAspectRatio="xMidYMid meet">

<g transform="translate(0.000000,609.000000) scale(0.100000,-0.100000)"
fill="#000000" stroke="none">
<path d="M0 3045 l0 -3045 3810 0 3810 0 0 3045 0 3045 -3810 0 -3810 0 0
-3045z m3729 1720 c121 -89 172 -153 213 -270 24 -67 43 -155 34 -155 -3 0
-37 48 -77 108 -114 171 -119 160 -6 -16 33 -51 57 -95 54 -98 -8 -8 -95 53
-143 101 -52 53 -90 117 -119 203 -27 79 -41 172 -27 172 5 0 37 -20 71 -45z
m-129 -74 c0 -5 -7 -28 -17 -52 -23 -62 -23 -242 1 -329 35 -128 82 -211 266
-470 34 -48 83 -140 118 -220 l10 -25 7 33 c4 17 12 32 16 32 15 0 86 -117
110 -179 12 -33 24 -93 27 -146 l7 -90 23 56 c26 63 62 193 62 224 0 17 -76
130 -148 221 -43 54 -4 -14 64 -113 35 -50 64 -94 64 -98 0 -14 -82 39 -134
86 -63 57 -114 150 -141 257 -25 97 -20 101 60 44 116 -82 169 -149 217 -277
l18 -50 -4 105 c-8 181 -74 354 -220 573 -32 48 -8 29 35 -28 23 -31 43 -54
45 -52 2 2 -6 28 -18 58 -32 79 -31 226 1 332 13 42 28 77 32 77 12 0 52 -84
78 -163 34 -102 30 -205 -12 -324 -6 -18 -14 -33 -18 -33 -3 0 -9 55 -13 123
-4 67 -11 125 -15 129 -3 4 -5 -52 -3 -125 l5 -132 54 -112 c30 -62 55 -113
56 -113 1 0 2 39 3 88 0 101 23 169 95 278 49 76 53 74 70 -37 17 -111 6 -200
-36 -284 -38 -77 -84 -140 -85 -115 0 8 11 66 24 127 13 62 20 111 16 108 -5
-3 -21 -57 -36 -120 l-27 -114 15 -138 14 -138 17 50 c25 72 104 172 185 233
69 50 92 61 92 43 0 -5 -11 -48 -25 -95 -30 -104 -61 -167 -109 -222 -37 -43
-143 -120 -153 -111 -2 3 30 55 72 117 43 61 75 113 73 116 -4 4 -115 -142
-151 -198 -9 -14 -24 -57 -33 -95 -10 -37 -26 -87 -36 -111 -27 -65 -22 -72
21 -25 72 77 194 141 319 168 l34 7 -18 -34 c-42 -82 -139 -188 -209 -228 -54
-30 -144 -60 -183 -60 -19 0 0 18 81 75 58 41 109 80 113 86 9 15 5 13 -123
-73 -72 -48 -111 -82 -134 -115 -60 -88 -112 -147 -240 -273 -70 -69 -146
-154 -169 -190 l-42 -65 7 40 c14 79 65 155 197 290 114 117 217 238 218 257
0 4 -19 37 -42 74 l-42 66 -12 -58 c-17 -80 -38 -137 -80 -214 -41 -73 -104
-163 -111 -157 -2 3 3 33 13 68 24 93 16 237 -18 310 -36 78 -78 122 -150 154
-57 26 -77 29 -205 34 -131 6 -144 8 -165 29 -20 19 -23 31 -20 86 2 51 -1 67
-18 86 -23 27 -23 25 -9 51 8 16 7 25 -5 38 -20 22 -20 45 -1 61 26 21 18 56
-20 84 -19 15 -35 36 -35 46 0 11 21 41 46 67 60 60 104 121 104 143 0 10 -9
20 -20 23 -29 8 -25 25 5 19 24 -4 25 -3 25 54 0 140 71 293 198 427 52 54 72
68 72 48z m276 -475 c102 -36 163 -81 229 -168 25 -33 44 -63 41 -65 -2 -2
-30 13 -63 35 -32 22 -80 52 -108 67 l-50 27 30 -26 c16 -14 63 -47 105 -72
89 -56 84 -53 79 -59 -9 -8 -141 25 -192 48 -65 30 -132 89 -191 168 -63 83
-61 90 17 73 34 -7 81 -19 103 -28z m-963 -1979 c116 -69 153 -218 81 -334
-44 -71 -97 -97 -201 -99 -78 -1 -83 0 -83 19 0 11 -10 31 -21 43 -12 13 -23
41 -26 66 -4 35 0 50 21 81 24 35 26 46 26 149 l0 111 79 -5 c62 -4 88 -10
124 -31z m1127 -202 c0 -181 -3 -235 -12 -235 -10 0 -13 54 -13 235 0 181 3
235 13 235 9 0 12 -54 12 -235z m-810 155 c0 -5 -22 -10 -50 -10 l-50 0 0 -55
c0 -55 0 -55 31 -55 20 0 29 -4 27 -12 -3 -7 -15 -13 -29 -13 -23 0 -24 -3
-27 -77 l-3 -78 51 0 c27 0 50 -4 50 -10 0 -6 -27 -10 -60 -10 l-60 0 0 165 0
165 60 0 c33 0 60 -4 60 -10z m202 -19 c45 -40 46 -96 3 -141 l-29 -30 18 -52
c9 -29 20 -59 23 -65 2 -7 -1 -13 -9 -13 -8 0 -21 26 -32 65 -17 61 -20 65
-47 65 -29 0 -29 0 -29 -65 0 -37 -4 -65 -10 -65 -6 0 -10 62 -10 165 l0 165
45 0 c35 0 52 -6 77 -29z m168 -111 c19 -77 35 -138 37 -136 2 2 18 63 36 136
45 187 57 182 57 -24 0 -126 -3 -166 -12 -166 -10 0 -12 28 -10 112 3 130 -6
127 -38 -14 -12 -56 -27 -98 -33 -98 -7 0 -24 47 -38 108 l-27 107 -1 -107
c-1 -79 -4 -108 -13 -108 -10 0 -13 40 -13 165 0 109 4 165 11 165 5 0 25 -63
44 -140z m658 112 c45 -33 76 -103 69 -159 -9 -80 -76 -143 -153 -143 l-44 0
0 166 0 167 49 -5 c27 -3 62 -14 79 -26z m272 18 c0 -5 -22 -10 -50 -10 l-50
0 0 -55 c0 -52 1 -55 25 -55 14 0 25 -6 25 -14 0 -9 -8 -12 -25 -8 l-25 4 0
-81 0 -81 50 0 c28 0 50 -4 50 -10 0 -6 -27 -10 -60 -10 l-60 0 0 165 0 165
60 0 c33 0 60 -4 60 -10z m167 -152 c20 -147 22 -180 8 -167 -2 3 -9 38 -15
79 -6 41 -13 81 -16 89 -10 29 -24 -6 -35 -84 -11 -81 -14 -93 -25 -83 -10 10
38 328 50 328 7 0 20 -64 33 -162z m143 7 l0 -155 51 0 c31 0 48 -4 44 -10 -3
-5 -32 -10 -63 -10 l-57 0 0 165 c0 125 3 165 13 165 9 0 12 -38 12 -155z"/>
<path d="M3503 4568 c-94 -161 -90 -395 9 -593 36 -70 78 -134 175 -263 119
-158 176 -295 189 -454 6 -68 -7 -202 -22 -243 -5 -12 -4 -16 3 -12 6 4 21 44
33 89 17 63 23 108 22 188 -1 172 -48 291 -192 485 -107 145 -163 244 -202
357 -30 87 -33 102 -32 223 0 109 4 140 22 189 25 68 23 82 -5 34z" />
<path d="M4044 3430 c15 -97 50 -250 58 -250 14 0 9 38 -23 163 -32 128 -46
163 -35 87z"/>
<path d="M2730 2160 l0 -89 48 6 c49 5 112 -15 112 -38 0 -5 -13 -3 -30 6 -34
17 -83 20 -111 5 -17 -9 -19 -22 -19 -105 0 -90 1 -95 25 -111 37 -24 118 -13
170 23 108 76 115 250 12 340 -42 36 -91 53 -159 53 l-48 0 0 -90z"/>
<path d="M2690 1991 c-14 -27 -12 -71 5 -101 13 -23 14 -20 15 48 0 39 -2 72
-5 72 -2 0 -9 -9 -15 -19z"/>
<path d="M3330 2099 l0 -82 41 6 c55 7 74 27 74 78 0 50 -30 79 -81 79 l-34 0
0 -81z"/>
<path d="M4150 2035 l0 -145 26 0 c70 0 134 68 134 142 0 71 -68 148 -131 148
l-29 0 0 -145z"/>
<path d="M4662 2090 c0 -14 2 -19 5 -12 2 6 2 18 0 25 -3 6 -5 1 -5 -13z"/>
</g>
</svg>
